<?xml version="1.0" standalone="no"?><!DOCTYPE svg PUBLIC "-//W3C//DTD SVG 1.1//EN" "http://www.w3.org/Graphics/SVG/1.1/DTD/svg11.dtd"><svg t="1713451152083" class="icon" viewBox="0 0 1024 1024" version="1.1" xmlns="http://www.w3.org/2000/svg" p-id="17135" width="20" height="20" xmlns:xlink="http://www.w3.org/1999/xlink"><path d="M921.6 960H102.4a6.656 6.656 0 0 1-6.656-7.168v-86.528a6.656 6.656 0 0 1 6.656-6.656h819.2a6.656 6.656 0 0 1 6.656 6.656v86.528a6.656 6.656 0 0 1-6.656 7.168zM566.272 69.12v658.432a6.144 6.144 0 0 1-6.656 5.632h-87.04a6.144 6.144 0 0 1-6.656-5.632V69.12c0-3.072 3.072-5.12 6.656-5.12h87.04c3.584 0 6.656 2.048 6.656 5.12z" fill="#FFFFFF" p-id="17136"></path><path d="M875.52 426.496l-358.4 358.4h-7.68l-61.44-60.928c-2.56-3.072-3.584-6.656 0-8.192l358.4-358.4h7.68l61.44 61.44c0.512 2.048 1.536 5.632 0 7.68z" fill="#FFFFFF" p-id="17137"></path><path d="M221.696 355.328l358.4 358.4v8.192l-60.928 60.928c-3.072 3.072-6.656 3.584-8.192 0l-358.4-358.4v-8.192L213.504 358.4c3.072-4.096 6.656-5.12 8.192-3.072z" fill="#FFFFFF" p-id="17138"></path></svg>