<?xml version="1.0" standalone="no"?><!DOCTYPE svg PUBLIC "-//W3C//DTD SVG 1.1//EN" "http://www.w3.org/Graphics/SVG/1.1/DTD/svg11.dtd"><svg t="1713451200510" class="icon" viewBox="0 0 1024 1024" version="1.1" xmlns="http://www.w3.org/2000/svg" p-id="20437" width="20" height="20" xmlns:xlink="http://www.w3.org/1999/xlink"><path d="M790.328889 817.038222l70.001778-60.643555a14.222222 14.222222 0 1 1 18.631111 21.504l-92.216889 79.872a14.222222 14.222222 0 0 1-20.252445-1.649778 14.336 14.336 0 0 1-1.564444-1.166222l-91.505778-78.364445a14.222222 14.222222 0 1 1 18.488889-21.617778l69.973333 59.904V654.222222a14.222222 14.222222 0 1 1 28.444445 0v162.816zM612.238222 787.911111a14.222222 14.222222 0 1 1 0 28.444445H241.777778A71.111111 71.111111 0 0 1 170.666667 745.244444V270.222222A71.111111 71.111111 0 0 1 241.777778 199.111111h162.787555a71.111111 71.111111 0 0 1 42.24 13.937778l102.684445 75.832889c7.367111 5.432889 16.241778 8.362667 25.372444 8.362666h207.36a71.111111 71.111111 0 0 1 71.111111 71.111112v221.696a14.222222 14.222222 0 1 1-28.444444 0V368.355556a42.666667 42.666667 0 0 0-42.666667-42.666667h-207.36a71.111111 71.111111 0 0 1-42.268444-13.937778l-102.684445-75.832889A42.666667 42.666667 0 0 0 404.565333 227.555556H241.777778A42.666667 42.666667 0 0 0 199.111111 270.222222v475.022222a42.666667 42.666667 0 0 0 42.666667 42.666667h370.460444z" p-id="20438" fill="#FFFFFF"></path></svg>