<?xml version="1.0" standalone="no"?><!DOCTYPE svg PUBLIC "-//W3C//DTD SVG 1.1//EN" "http://www.w3.org/Graphics/SVG/1.1/DTD/svg11.dtd"><svg t="1713451088422" class="icon" viewBox="0 0 1024 1024" version="1.1" xmlns="http://www.w3.org/2000/svg" p-id="15558" data-spm-anchor-id="a313x.search_index.0.i51.4aaf3a81krcVcN" width="20" height="20" xmlns:xlink="http://www.w3.org/1999/xlink"><path d="M512.192747 0.513992A513.991718 513.991718 0 0 0 0.513992 493.881792a515.469444 515.469444 0 0 0 511.678755 529.604216 511.486008 511.486008 0 0 0 0-1022.972016z m244.146066 618.781779H494.909775a57.824068 57.824068 0 0 1-38.163885-15.355502c-1.284979-1.156481-3.019701-1.991718-4.30468-3.019702s-1.927469-3.019701-3.083951-4.433178a58.466558 58.466558 0 0 1-15.227004-38.549379V295.737985a64.248965 64.248965 0 0 1 127.726942 0v195.381101h194.674363a64.248965 64.248965 0 0 1 0 128.176685z" fill="#FFFFFF" p-id="15559" data-spm-anchor-id="a313x.search_index.0.i52.4aaf3a81krcVcN" class="selected"></path></svg>