<?xml version="1.0" standalone="no"?><!DOCTYPE svg PUBLIC "-//W3C//DTD SVG 1.1//EN" "http://www.w3.org/Graphics/SVG/1.1/DTD/svg11.dtd"><svg t="1713450636799" class="icon" viewBox="0 0 1045 1024" version="1.1" xmlns="http://www.w3.org/2000/svg" p-id="6126" width="20.41015625" height="20" xmlns:xlink="http://www.w3.org/1999/xlink"><path d="M465.264823 1005.221616H193.234953c-93.520442 0-169.61067-76.086054-169.610669-169.614843V188.397401C23.624284 94.872786 99.710338 18.782558 193.234953 18.782558h544.063913c93.520442 0 169.614843 76.086054 169.614843 169.610669v171.255187c0 28.812443-23.361328 52.173771-52.173771 52.173771s-52.173771-23.361328-52.173771-52.173771v-171.255187c0-35.98738-29.27992-65.263127-65.267301-65.263127H193.234953c-35.98738 0-65.263127 29.27992-65.263127 65.267301v647.209372c0 35.983207 29.275747 65.267301 65.263127 65.267301h272.038217c28.80827 0 52.173771 23.365502 52.173772 52.173771s-23.365502 52.173771-52.182119 52.173771z" p-id="6127" fill="#787F8D"></path><path d="M946.048212 578.594602l68.8819-68.877726c20.376988-20.372814 20.376988-53.409246 0-73.782061-20.36864-20.376988-53.409246-20.372814-73.786235 0l-84.162554 84.162554a52.16125 52.16125 0 0 0-15.280654 36.888944v158.771046c-21.524811-8.201717-45.299355-12.793009-70.301026-12.793008-96.30026 0-174.652743 67.642251-174.652743 150.786373s78.348309 150.786373 174.652743 150.786372 174.652743-67.642251 174.652743-150.786372c0-3.898424-0.229565-7.742588-0.567651-11.565882 0.329738-2.370776 0.563477-4.783291 0.563477-7.245893v-256.344347z m-174.648569 321.586604c-33.253475 0-70.3052-19.066383-70.3052-46.43883s37.051725-46.43883 70.3052-46.438831 70.3052 19.066383 70.3052 46.438831-37.051725 46.43883-70.3052 46.43883zM466.329168 475.207057c-132.38364 0-240.082826-107.699186-240.082826-240.074479 0-28.816617 23.365502-52.173771 52.173771-52.173771 28.816617 0 52.173771 23.357154 52.173771 52.173771 0 74.842231 60.888878 135.726936 135.735284 135.726936 74.842231 0 135.726936-60.884704 135.726935-135.726936 0-28.816617 23.361328-52.173771 52.173771-52.173771s52.173771 23.357154 52.173772 52.173771c0 132.375292-107.699186 240.074478-240.074478 240.074479z" p-id="6128" fill="#787F8D"></path></svg>